<?xml version="1.0" encoding="UTF-8"?>
<svg viewBox="0 0 32 32" xmlns="http://www.w3.org/2000/svg">
  <defs>
    <linearGradient id="bg" x1="0%" y1="0%" x2="100%" y2="100%">
      <stop offset="0%" style="stop-color:#3b82f6"/>
      <stop offset="50%" style="stop-color:#2563eb"/>
      <stop offset="100%" style="stop-color:#1d4ed8"/>
    </linearGradient>
  </defs>
  
  <!-- Rounded background -->
  <rect width="32" height="32" rx="7" fill="url(#bg)"/>
  
  <!-- BEFORE: Messy file -->
  <rect x="4" y="6" width="10" height="12" rx="1.5" fill="white" opacity="0.95"/>
  <rect x="5.5" y="8" width="5" height="0.8" rx="0.4" fill="#ef4444" opacity="0.7"/>
  <rect x="5.5" y="10" width="7" height="0.8" rx="0.4" fill="#ef4444" opacity="0.5"/>
  <rect x="5.5" y="12" width="4" height="0.8" rx="0.4" fill="#ef4444" opacity="0.6"/>
  <rect x="5.5" y="14" width="6" height="0.8" rx="0.4" fill="#ef4444" opacity="0.4"/>
  
  <!-- Transformation arrow -->
  <path d="M15 12 L17 12 M16 10 L17 12 L16 14" stroke="white" stroke-width="1.2" fill="none" stroke-linecap="round"/>
  
  <!-- AFTER: Clean organized file -->
  <rect x="18.5" y="6" width="10" height="12" rx="1.5" fill="white" opacity="0.95"/>
  <rect x="20" y="8" width="6" height="0.8" rx="0.4" fill="#22c55e" opacity="0.8"/>
  <rect x="20" y="10" width="5" height="0.8" rx="0.4" fill="#22c55e" opacity="0.7"/>
  <rect x="20" y="12" width="7" height="0.8" rx="0.4" fill="#22c55e" opacity="0.6"/>
  <rect x="20" y="14" width="4" height="0.8" rx="0.4" fill="#22c55e" opacity="0.8"/>
  
  <!-- BR monogram -->
  <text x="16" y="26" font-family="Inter, sans-serif" font-size="6" font-weight="700" text-anchor="middle" fill="white" opacity="0.9">BR</text>
  
  <!-- Subtle highlight rim -->
  <rect width="32" height="32" rx="7" fill="none" stroke="rgba(255,255,255,0.2)" stroke-width="0.5"/>
</svg>